<?xml version="1.0" encoding="utf-8"?>
<!-- Generator: Adobe Illustrator 18.0.0, SVG Export Plug-In . SVG Version: 6.00 Build 0)  -->
<!DOCTYPE svg PUBLIC "-//W3C//DTD SVG 1.1//EN" "http://www.w3.org/Graphics/SVG/1.1/DTD/svg11.dtd">
<svg version="1.1" id="Layer_1" xmlns="http://www.w3.org/2000/svg" xmlns:xlink="http://www.w3.org/1999/xlink" x="0px" y="0px"
	 viewBox="0 0 2177.6 490.9" enable-background="new 0 0 2177.6 490.9" xml:space="preserve">
<path fill="#12DDBB" d="M1381.9,368.2H54.9C24.6,368.2,0,343.7,0,313.3V54.9C0,24.6,24.6,0,54.9,0h1327c30.3,0,54.9,24.6,54.9,54.9
	v258.5C1436.8,343.7,1412.2,368.2,1381.9,368.2z"/>
<path fill="#12DDBB" d="M1367.2,202.8c0,0-53.5,202.4,77.7,288.1c0,0-145.6-9.7-225.9-145s141.6-146.9,141.6-146.9"/>
<g>
	<path fill="#FFFFFF" d="M110.7,117.6h-55V89.3h140.6v28.2h-55v145.1h-30.7V117.6z"/>
	<path fill="#FFFFFF" d="M228.6,89.3h30.5v72.1h82.7V89.3h30.5v173.3h-30.5v-73h-82.7v73h-30.5V89.3z"/>
	<path fill="#FFFFFF" d="M409.1,176.5V176c0-48.8,37.6-89.6,90.9-89.6s90.4,40.4,90.4,89.1v0.5c0,48.8-37.6,89.6-90.9,89.6
		S409.1,225.3,409.1,176.5z M558.4,176.5V176c0-33.7-24.5-61.7-58.9-61.7S441,141.8,441,175.5v0.5c0,33.7,24.5,61.7,58.9,61.7
		C534.4,237.7,558.4,210.2,558.4,176.5z"/>
	<path fill="#FFFFFF" d="M624.5,189.1V89.3H655v98.6c0,32.2,16.6,49.5,43.8,49.5c27,0,43.6-16.3,43.6-48.3V89.3h30.5v98.3
		c0,51.8-29.2,77.8-74.5,77.8C653.3,265.4,624.5,239.4,624.5,189.1z"/>
	<path fill="#FFFFFF" d="M807,176.5V176c0-48.5,37.1-89.6,89.4-89.6c30.2,0,48.8,8.4,66.6,23.5l-19.3,23
		c-13.4-11.4-26.5-18.6-48.5-18.6c-31.9,0-56.2,28-56.2,61.2v0.5c0,35.7,23.5,61.9,58.9,61.9c16.3,0,31.2-5.2,41.8-13.1v-32.4h-44.3
		v-26.5h73.8v72.8c-17.1,14.6-41.6,27-72.3,27C842.7,265.6,807,227,807,176.5z"/>
	<path fill="#FFFFFF" d="M1008.8,89.3h30.5v72.1h82.7V89.3h30.5v173.3H1122v-73h-82.7v73h-30.5V89.3z"/>
	<path fill="#FFFFFF" d="M1239.6,117.6h-55V89.3h140.6v28.2h-55v145.1h-30.7V117.6z"/>
	<path d="M1506,89.3h30.5v145.6h91.1v27.7H1506V89.3z"/>
	<path d="M1659.3,89.3h128.5v27.2h-98.1v45.1h86.9v27.2h-86.9v46.6h99.3v27.2h-129.8V89.3z"/>
	<path d="M1886.6,88.1h28.2l76.3,174.6h-32.2l-17.6-41.8h-82l-17.8,41.8h-31.2L1886.6,88.1z M1930.2,193.8l-30-69.3l-29.7,69.3
		H1930.2z"/>
	<path d="M2020.8,89.3h64.6c54.5,0,92.1,37.4,92.1,86.2v0.5c0,48.8-37.6,86.7-92.1,86.7h-64.6V89.3z M2085.5,234.9
		c36.4,0,60.2-24.5,60.2-58.4V176c0-33.9-23.8-58.9-60.2-58.9h-34.2v117.9H2085.5z"/>
</g>
</svg>
